<?xml version="1.0" encoding="UTF-8"?>
<svg id="Layer_1" data-name="Layer 1" xmlns="http://www.w3.org/2000/svg" viewBox="0 0 600 693">
  <defs>
    <style>
      .cls-1 {
        fill: #fff;
        stroke-width: 0px;
      }
    </style>
  </defs>
  <path class="cls-1" d="m0,651.8c2.6-.38,5.19-.91,7.81-1.09,2.13-.15,4.33-.09,6.44.23,4.56.68,7.79,3.22,9.33,7.63,1.96,5.63,1.91,11.34,0,16.94-1.43,4.21-4.71,6.57-8.99,7.42-1.87.37-3.81.46-5.72.51-2.95.08-5.91.02-8.87.02C0,672.9,0,662.35,0,651.8Zm6.28,27.03c3.26-.23,6.19-.44,9.12-.65,1.28-.09,2-.82,2.41-1.99,1.79-5.11,2.04-10.3.69-15.53-.54-2.1-1.86-3.72-3.97-4.49-2.69-.98-5.43-.9-8.25-.43v23.1Z"/>
  <path class="cls-1" d="m600,659.47c-.97,3.53-1.81,7.1-2.92,10.59-1.8,5.63-3.64,11.25-5.7,16.78-2.16,5.8-7.14,7.52-13.12,4.51.16-1.65.33-3.43.51-5.35h4.33c.14.72.27,1.4.39,2.04,1.28.49,2.07.16,2.49-1.08.49-1.42,1.03-2.82,1.65-4.49-2.45.35-3.05-1.19-3.61-2.85-2.08-6.12-4.21-12.23-6.29-18.35-.28-.81-.43-1.66-.69-2.7,1.83-.21,3.47-.4,5.26-.61,1.99,6.71,3.72,13.33,6.59,20.19,1.69-3.57,2.4-6.89,3.33-10.12.93-3.22,1.68-6.49,2.58-9.99,1.77.15,3.49.31,5.21.46v.96Z"/>
  <path class="cls-1" d="m154.02,536.48c-.99-.48-1.63-.74-2.22-1.08-34.75-20.08-69.49-40.17-104.26-60.2-1.63-.94-1.83-2.09-1.83-3.71.03-40.53.02-81.06.02-121.58,0-62.99,0-125.98,0-188.97,0-1.03,0-2.05,0-2.98.26-.14.32-.19.4-.21.07-.02.16-.04.23-.02.23.07.46.13.67.25,84.42,47.88,168.83,95.76,253.41,143.74,84.69-48.04,169.42-96.1,254.64-144.45,0,1.53,0,2.53,0,3.53,0,67.47,0,134.93,0,202.4,0,35.89-.03,71.78.06,107.67,0,2.51-.84,3.78-2.95,5-34.16,19.66-68.27,39.4-102.39,59.13-.81.47-1.63.91-2.84,1.58v-184.62c-1.29.68-2.2,1.12-3.07,1.62-46.79,26.55-93.59,53.09-140.35,79.71-2.2,1.25-3.82,1.35-6.08.06-46.68-26.58-93.42-53.08-140.14-79.59-.95-.54-1.92-1.05-3.27-1.78v184.52Zm-37.13-254.65c1.34.73,2.3,1.24,3.24,1.77,59.32,33.64,118.64,67.28,177.93,100.97,1.75,1,3.03.97,4.77-.02,28.27-16.11,56.58-32.15,84.88-48.2,31.15-17.67,62.31-35.33,93.47-53,.8-.45,1.62-.87,2.8-1.49v178.59c1.89-.51,23.13-12.62,25.72-14.6v-209.59c-1.08.58-1.91,1-2.72,1.46-67.87,38.49-135.74,76.99-203.62,115.48-.49.28-1,.52-1.46.83-.96.65-1.89.74-2.88.04-.52-.37-1.11-.64-1.66-.95-52.64-29.86-105.28-59.71-157.93-89.57-15.23-8.64-30.45-17.28-45.69-25.9-.78-.44-1.49-1.18-2.75-.98,0,1.17,0,2.28,0,3.39,0,60.2,0,120.39,0,180.59,0,7.75.03,15.51-.03,23.26,0,1.43.4,2.33,1.7,3.07,7.51,4.27,14.96,8.62,22.44,12.93.44.26.97.38,1.78.69v-178.77Z"/>
  <path class="cls-1" d="m511.22,120.33c14.85,8.05,29.53,16.01,44.62,24.19-1.14.68-1.97,1.19-2.82,1.68-37.87,21.54-75.74,43.08-113.61,64.62-45.45,25.85-90.89,51.69-136.34,77.54-.28.16-.59.27-.83.48-1.25,1.05-2.36.75-3.69-.02-9.42-5.43-18.89-10.77-28.34-16.15-74.07-42.13-148.15-84.26-222.22-126.4-.89-.51-1.78-1.03-2.98-1.73,15.04-8.15,29.77-16.15,44.64-24.21.75.41,1.52.81,2.27,1.23,68.52,38.96,137.04,77.92,205.56,116.88.28.16.59.28.83.48,1.45,1.23,2.72.92,4.32,0,41.18-23.48,82.4-46.9,123.61-70.33,27.59-15.69,55.18-31.38,82.76-47.06.69-.39,1.4-.76,2.23-1.21Z"/>
  <path class="cls-1" d="m502.54,114.6c-12.07,6.55-23.65,12.83-35.31,19.15-.86-.47-1.7-.92-2.52-1.39-53.72-30.55-107.44-61.1-161.16-91.63-3.74-2.12-2.44-2.15-6.17-.03-53.73,30.53-107.45,61.08-161.17,91.63-.83.47-1.67.92-2.56,1.42-11.63-6.31-23.21-12.59-35.24-19.11,1.1-.68,1.86-1.17,2.64-1.62,17.37-9.89,34.74-19.77,52.11-29.65C201.24,56.02,249.33,28.67,297.42,1.32c.35-.2.72-.36,1.04-.6,1.31-1.03,2.5-.89,3.94-.04,6.28,3.67,12.63,7.22,18.95,10.82,59.27,33.72,118.55,67.43,177.82,101.15.96.55,1.91,1.11,3.37,1.95Z"/>
  <path class="cls-1" d="m11.58,629.66H3.2c.73-16.01,1.46-31.85,2.2-48.01,2.56,0,4.93-.08,7.29.07.49.03,1.07.86,1.36,1.44,1.12,2.21,2.14,4.47,3.19,6.71,2.14,4.55,4.27,9.11,6.42,13.67.33.7.72,1.36,1.26,2.39.55-1.06.98-1.79,1.33-2.56,3.01-6.44,6.09-12.85,8.97-19.35.85-1.92,1.93-2.67,3.98-2.45,1.64.17,3.32.03,5.23.03.72,16.14,1.43,31.98,2.14,48.03h-8.31c-.45-10.19-.91-20.35-1.36-30.5-.16-.05-.32-.1-.47-.15-2.74,5.62-5.48,11.23-8.29,17-1.73,0-3.4-.05-5.07.02-1.14.05-1.72-.47-2.18-1.45-1.88-3.97-3.81-7.91-5.74-11.86-.58-1.2-1.2-2.38-2.26-3.51-.44,10.13-.88,20.25-1.32,30.5Z"/>
  <path class="cls-1" d="m244.09,582.88c6.86-1.8,13.82-2.96,20.93-1.12,9.92,2.57,13.4,14.44,6.53,22.09-.31.35-.59.72-.92,1.12.34.26.57.49.84.64,4.96,2.67,6.02,7.08,5.56,12.22-.45,5.02-2.93,8.6-7.71,10.26-2.38.83-4.95,1.42-7.46,1.54-5.58.26-11.18.14-16.77.17-.31,0-.62-.09-.9-.13-.48-1.82-.58-43.97-.1-46.78Zm7.99,26.28c-.13,4.6-.14,8.94-.02,13.49,4.28-.07,8.26.3,12.19-.59,1.51-.34,2.9-.91,3.8-2.29,2.31-3.56.52-8.75-3.49-10.07-.83-.27-1.71-.5-2.57-.52-3.19-.06-6.38-.02-9.91-.02Zm.14-20.63c-.45,3.53-.32,11.56.22,13.4,3.44,0,6.94-.03,10.44.02,1.04.01,1.61-.59,2.12-1.3,1.47-2.04,1.88-4.37,1.65-6.81-.28-3.03-1.46-4.46-4.41-5.18-3.28-.8-6.61-.87-10.02-.13Z"/>
  <path class="cls-1" d="m348.61,611.06v18.6h-7.85c-.49-1.72-.65-43.25-.14-46.68,2.05-.46,4.2-1.02,6.37-1.42,4.27-.79,8.55-.96,12.87-.28,8.27,1.31,12.76,6.86,12.34,15.2-.24,4.84-1.98,8.83-6.27,11.66,3.61,3.71,4.95,8.46,6.97,12.84.86,1.88,1.7,3.39,4.05,3.3.37-.01.75.19,1.24.33v4.58c-2.45,1.1-4.97,1.41-7.52.91-2.18-.43-3.62-1.91-4.51-3.94-1.35-3.07-2.72-6.13-4.08-9.19-.13-.29-.28-.58-.38-.88-1.19-3.75-3.78-5.31-7.66-5.04-1.66.12-3.34.02-5.45.02Zm.04-22.52c.02,5.23-.12,10.2.09,15.35,3.41,0,6.52-.06,9.62.03,1.33.04,2.28-.48,3.14-1.4,2.63-2.81,2.68-6.16,2-9.64-.4-2.07-1.7-3.39-3.69-4-3.58-1.1-7.2-1.08-11.16-.34Z"/>
  <path class="cls-1" d="m464.98,581.73h8.05c.23,6.98-.04,13.88.15,20.93h18.43c.13-3.54.04-7.03.06-10.51.01-3.42,0-6.83,0-10.38h8.23v47.89h-8.18v-19.42h-18.59v19.39c-2.85.34-5.44.16-8,.13-.52-1.84-.67-44.44-.16-48.04Z"/>
  <path class="cls-1" d="m92.69,605.53c.06,3.95-.39,7.99-1.58,11.92-2.42,7.98-7.42,12.09-15.75,12.8-2.37.2-4.8.21-7.16-.06-6.3-.72-10.84-4.03-13.34-9.9-2.3-5.42-2.69-11.16-2.28-16.93.21-2.93.63-5.89,1.37-8.73,2.05-7.94,7.09-12.6,15.44-13.51,3.14-.34,6.23-.33,9.3.31,5.56,1.17,9.45,4.42,11.66,9.67,1.92,4.58,2.44,9.39,2.36,14.45Zm-31.87-.15c0,3.93.21,7.58,1.4,11.11,1.34,4.01,4.18,6.21,8.3,6.5,2.52.18,5.08-.21,7.62-.33,2.13-.1,3.16-1.34,3.88-3.25,2.16-5.72,2.86-11.61,2.23-17.64-.25-2.36-.68-4.75-1.41-7.01-1.17-3.65-3.82-5.74-7.66-6.37-2.98-.48-5.87-.1-8.8.38-1.62.26-2.48,1.1-3.1,2.57-1.94,4.58-2.49,9.38-2.45,14.04Z"/>
  <path class="cls-1" d="m324.79,622.22v-11.93c-3.37-.31-6.71,0-10.28-.21-.23-2.19-.16-4.3-.02-6.61.64-.1,1.24-.27,1.84-.27,3.84-.02,7.68.06,11.51-.04,2.14-.06,3.38,1.38,4.64,2.61.59.57.61,1.88.63,2.86.07,3.43-.08,6.87.05,10.3.17,4.29-1.92,7.1-5.49,9.07-3.77,2.07-7.88,2.54-12.07,2.47-1.74-.03-3.51-.29-5.22-.64-6.48-1.33-10.99-5.19-13.2-11.33-3.22-8.95-2.84-17.94,1.06-26.61,2.83-6.3,7.87-9.88,14.81-10.72,5.91-.72,11.62-.1,17.15,2.2,1.52.63,2.18,1.53,2.08,3.25-.15,2.79.02,5.6-1.45,8.3h-5.81c-.31-2.08-.61-4.11-.92-6.23-.69-.12-1.31-.33-1.92-.33-3.91.04-7.82.09-11.72.22-1.39.05-2.54.55-3.25,2-3.6,7.45-4.76,15.22-2.93,23.31,1.31,5.76,5.09,8.82,11.02,9.23,3.12.21,6.21.09,9.47-.89Z"/>
  <path class="cls-1" d="m148.02,629.94c-2.85-.28-5.46-.53-8.24-.8.07-.67.05-1.2.18-1.7,4.04-14.79,8.46-29.46,13.89-43.81.76-2,.77-2.02,2.91-2.03,3.19-.02,6.37,0,9.67,0,6.05,15.55,10.75,31.34,15.12,47.44-1.94.24-3.59.46-5.24.63-1.02.11-2.05.13-3.24.2-1.42-5.18-2.81-10.23-4.22-15.36h-16.68c-1.35,5.01-2.71,10.06-4.16,15.43Zm12.48-40.72c-2.4,5.85-4.34,11.75-6.01,17.97h11.96c-1.69-6.19-3.49-12.14-5.95-17.97Z"/>
  <path class="cls-1" d="m230.4,629.94c-1.47-5.35-2.83-10.34-4.22-15.41h-16.66c-1.36,5.01-2.74,10.06-4.19,15.39-2.74-.26-5.41-.51-8.06-.75-.14-3.66,11.14-39.84,14.83-47.57,2.3,0,4.76-.04,7.22,0,5.46.09,4.12-.83,5.99,4.12,5.1,13.53,9.19,27.39,13.05,41.31.17.6.22,1.23.37,2.08-2.8.28-5.47.54-8.33.82Zm-18.59-22.9c3.99.58,10.38.39,11.88-.34-1.73-5.84-3.38-11.72-5.86-17.42-2.5,5.75-4.24,11.66-6.01,17.76Z"/>
  <path class="cls-1" d="m406.49,581.59c6.06,15.65,10.76,31.36,15.09,47.34-.72.15-1.17.28-1.62.33-2.21.23-4.43.43-6.8.66-1.44-5.22-2.84-10.28-4.26-15.41h-16.65c-1.35,5-2.72,10.05-4.17,15.4-2.78-.27-5.51-.53-8.4-.8.19-.88.29-1.5.46-2.1,3.96-14.48,8.3-28.84,13.58-42.9q.94-2.51,3.53-2.52c3.03,0,6.06,0,9.25,0Zm-12,25.66c4.14.06,7.99.11,11.88-.02-.78-4.35-4.55-15.91-5.99-18.26-2.29,6.05-4.13,12-5.89,18.28Z"/>
  <path class="cls-1" d="m107.61,608.42v21.18h-8.08v-47.56c1.84-.57,5.38-.62,8.07-.07v19.12c2.92.26,5.54.39,8.1-.32,1.73-.48,2.81-1.82,3.58-3.34,1.09-2.13,2.11-4.3,3.1-6.48,1.49-3.26,2.93-6.55,4.53-10.12,2.55,1.01,5.02,1.99,7.77,3.09-3.83,7.07-5.89,14.76-11.35,20.91,3.32,2.13,4.58,5.73,6.15,9.13,1.17,2.54,2.39,5.06,3.43,7.65.63,1.55,1.42,2.61,3.25,2.58.54,0,1.08.24,1.79.41v4.29c-4,3-10,1.69-12.1-2.78-1.7-3.62-3.26-7.29-4.9-10.93-.42-.95-.89-1.88-1.32-2.82-1.15-2.47-3-3.89-5.8-3.91-1.97-.01-3.94,0-6.24,0Z"/>
  <path class="cls-1" d="m594.51,595.08h-6.15c-.3-2.15-.59-4.25-.92-6.61-3.42-.57-6.8-.85-10.16.15-1.74.51-2.86,1.73-3.21,3.54-.16.86-.31,1.74-.32,2.61-.05,2.67,1.09,4.67,3.67,5.57,2.18.77,4.44,1.31,6.64,2.04,2.42.81,4.9,1.52,7.18,2.63,4.28,2.08,6.36,5.67,6.33,10.43,0,1.19-.1,2.4-.32,3.57-1.22,6.23-4.84,9.91-11.09,11.02-7.5,1.33-14.62-.1-21.42-3.39-.13-.06-.21-.23-.5-.57.81-1.99,1.66-4.11,2.62-6.49,1.13.47,2.14.86,3.12,1.3,5.21,2.29,10.63,2.79,16.18,1.76,2.39-.44,2.54-.7,2.85-3.11.73-5.67-.51-7.66-5.97-9.46-1.59-.52-3.24-.87-4.83-1.41-1.89-.64-3.8-1.26-5.59-2.12-5.77-2.79-8.16-7.7-6.97-14.02,1.22-6.46,5.14-10.27,11.69-11.26,5.81-.88,11.46-.44,16.86,2.13,1.41.67,1.99,1.49,1.94,3.11-.08,2.92-.61,5.7-1.66,8.6Z"/>
  <path class="cls-1" d="m426.81,583.14c7.21-2.01,14.39-3.28,21.77-1.32,6.45,1.71,10.28,6.12,10.79,12.79.21,2.75.11,5.61-.4,8.32-1.14,6.06-5.04,9.72-11.03,10.87-3.04.58-6.19.6-9.29.83-1.1.08-2.22.01-3.59.01-.38,5.03.03,9.88-.26,14.96-2.61.4-5.19.16-7.73.14-.55-1.88-.75-41.99-.24-46.62Zm8.26,5.39v18.93c4.47.22,8.75.13,13.02-.51,1.24-.19,1.73-1.04,2.1-2.03,1.29-3.46,1.38-7.02.77-10.6-.47-2.78-2.22-4.53-4.87-5.37-3.58-1.14-7.2-1.15-11.02-.41Z"/>
  <path class="cls-1" d="m557.47,594.92h-5.78c-.28-2.07-.55-4.03-.83-6.12-.5-.13-1.01-.33-1.53-.4-3.51-.47-7.01-.27-10.52.16-1.74.21-3.05.91-3.61,2.64-.9,2.8-2.05,5.56-2.58,8.43-.9,4.81-.93,9.7.18,14.52,1.33,5.78,4.67,8.59,10.55,8.99,4.5.3,8.76-.42,12.63-2.86.39-.25.82-.43,1.42-.73,1.24,1.97,2.42,3.82,3.65,5.78-2.17,1.97-4.56,3.21-7.17,3.97-5.49,1.59-11.06,1.73-16.57.29-5.73-1.49-9.65-5.15-11.69-10.72-1.94-5.28-2.18-10.76-1.68-16.3.4-4.42,1.49-8.64,3.69-12.54,3.16-5.61,8.05-8.5,14.38-9.03,5.01-.42,9.86.36,14.55,2.23,1.77.71,2.6,1.66,2.5,3.73-.18,3.95-.34,5.53-1.58,7.99Z"/>
  <path class="cls-1" d="m98.59,659.43c1.52-2.04,3.44-1.04,5.39-1.01.04.93.1,1.71.11,2.48,0,7.74.01,15.48,0,23.22,0,5.15-2.05,7.55-7.14,8.54-4.33.84-8.37.05-12.45-2.11.54-1.39,1.03-2.68,1.59-4.13,4.08,1.88,8.09,2.48,12.46,1.19v-6.05c-.62.27-1.11.46-1.58.68-2.18,1.02-4.45,1.2-6.78.73-2.24-.45-4.08-1.58-5.06-3.64-.77-1.63-1.33-3.41-1.7-5.18-.66-3.18-.28-6.37.61-9.46,1.66-5.75,7.06-8.36,12.66-6.16.59.23,1.15.54,1.89.9Zm.02,11.11c0-1.04,0-2.08,0-3.11-.03-3.18-2.97-5.55-6.11-4.93-1.44.28-2.55,1.03-2.99,2.45-1.14,3.67-1.24,7.4-.11,11.07.65,2.11,2.46,2.95,4.8,2.58,2.55-.4,4.35-2.1,4.41-4.23.03-1.28,0-2.55,0-3.83Z"/>
  <path class="cls-1" d="m475.9,659.46c1.58-2.09,3.49-1.05,5.39-1.04.04.89.1,1.6.1,2.31,0,7.9.01,15.8,0,23.7,0,4.73-2.08,7.21-6.71,8.17-4.48.93-8.68.21-12.86-2.08.52-1.35.99-2.59,1.55-4.08,4.08,1.82,8.16,2.52,12.55,1.14v-6.07c-.74.33-1.29.59-1.86.83-6.11,2.61-11.75-.28-13.13-6.79-.75-3.57-.63-7.15.36-10.67,1.71-6.08,7.4-8.72,13.19-6.18.44.19.85.44,1.41.74Zm.05,11.2c0-1.04,0-2.08,0-3.11-.02-2.99-2.3-5.23-5.3-5.13-1.82.06-3.3.8-3.87,2.65-1.11,3.59-1.2,7.25-.1,10.84.68,2.22,2.55,3.11,4.96,2.68,2.55-.45,4.25-2.16,4.3-4.33.03-1.2,0-2.4,0-3.59Z"/>
  <path class="cls-1" d="m401.92,648.51h5.31v34.89c-1.84-.31-3.84,1.08-5.29-1.24-2.62,1.51-5.5,2.14-8.62,1.48-2.89-.61-4.98-2.19-6.03-4.93-1.92-5.04-2.01-10.15,0-15.19,1.85-4.64,5.77-6.63,11.9-5.11.83.21,1.64.54,2.74.92v-10.82Zm-.04,22.01c0-1.43.05-2.87-.02-4.3-.03-.6-.11-1.38-.49-1.75-1.55-1.53-3.48-2.24-5.67-1.89-2.07.33-3.14,1.74-3.65,3.65-.81,3.06-.81,6.18-.12,9.23.8,3.53,4.31,4.95,7.46,3.12,1.59-.92,2.72-2.16,2.51-4.24-.12-1.26-.02-2.55-.03-3.82Z"/>
  <path class="cls-1" d="m326.99,659.37v-10.65c1.75-.67,3.39-.34,4.99-.28.6,1.72.81,30.91.25,34.85-1.76-.1-3.74,1.12-5.25-1.14-2.58,1.53-5.39,2.1-8.44,1.51-2.99-.59-5.15-2.21-6.21-5.05-1.86-4.97-1.95-10.01-.01-14.98,1.79-4.59,5.46-6.76,11.82-5.27.84.2,1.64.57,2.85,1Zm-.01,11.21c0-1.43.03-2.87-.01-4.3-.01-.54,0-1.23-.31-1.59-1.38-1.61-3.26-2.28-5.34-2.19-1.94.09-3.33,1.16-3.93,2.99-1.17,3.58-1.18,7.23-.1,10.82.72,2.4,2.75,3.32,5.58,2.85,2.35-.39,4.06-2.26,4.1-4.52.03-1.35,0-2.71,0-4.07Z"/>
  <path class="cls-1" d="m533.04,681.98v10.51h-5.31v-34.05h4.66c.18.44.41,1,.67,1.64.39-.18.77-.31,1.09-.52,2.1-1.37,4.41-1.77,6.87-1.58,3.14.23,5.52,1.67,6.74,4.6,2.19,5.24,2.26,10.58.11,15.84-2.26,5.54-7.74,5.94-11.86,4.69-.9-.27-1.76-.66-2.97-1.12Zm.11-10.75c0,1.36.06,2.72-.02,4.07-.07,1.19.41,2.05,1.42,2.53,1.07.5,2.19,1.01,3.34,1.19,2.79.44,4.65-.82,5.36-3.57.83-3.23.79-6.5-.02-9.72-.6-2.39-2.45-3.53-4.88-3.24-2.79.33-5.15,2.43-5.2,4.67-.03,1.36,0,2.71,0,4.07Z"/>
  <path class="cls-1" d="m508.9,581.74h7.65c.48,1.83.64,43.93.19,47.9-2.53.34-5.1.16-7.64.11-.5-1.91-.67-44.14-.19-48Z"/>
  <path class="cls-1" d="m568.55,683.32v-20.39c-3.32-.68-6.15-.2-8.73,1.76-.85.65-.72,1.54-.72,2.4,0,4.48,0,8.95,0,13.43,0,.87,0,1.73,0,2.76-1.86,0-3.5,0-5.14,0-.48-1.82-.54-32.3-.04-34.78h5.16v11.52c1-.45,1.64-.72,2.27-1.02,2.49-1.17,5.11-1.29,7.75-.86,2.69.44,4.21,2.05,4.7,4.75.1.55.16,1.11.16,1.67.01,5.76.01,11.51,0,17.27,0,.46-.09.92-.16,1.51h-5.26Z"/>
  <path class="cls-1" d="m161.67,673.25v10.08h-5.24c-.48-1.77-.6-28.23-.12-31.26,4.8-1.41,9.71-2.2,14.73-.79,4.32,1.21,6.72,4.17,7.08,8.62.1,1.27.1,2.56,0,3.83-.44,5.13-3.44,8.35-8.56,9.13-1.65.25-3.34.29-5.01.38-.85.05-1.71,0-2.87,0Zm.12-4.94c3,.37,5.76.17,8.53-.21,1.05-.14,1.46-.9,1.72-1.76.65-2.17.89-4.35.42-6.61-.42-2.02-1.59-3.29-3.52-3.83-2.33-.65-4.69-.69-7.15-.08v12.49Z"/>
  <path class="cls-1" d="m361.79,683.36h-5.86c-2.98-4.38-9.77-25.97-10.67-32.1,1.74-.57,3.52-.47,5.49-.4,2.23,8.7,4.62,17.29,7.97,26.02,1.4-2.18,1.85-4.33,2.57-6.35.78-2.18,1.42-4.41,2.09-6.62.65-2.14,1.28-4.28,1.87-6.44.59-2.14,1.11-4.31,1.71-6.63.96,0,1.81-.03,2.67,0,.87.04,1.73.13,2.57.2.43,3.65-7.12,27.01-10.41,32.31Z"/>
  <path class="cls-1" d="m516.75,668.71c.7-5.54-.31-6.66-5.34-6.39-.31.02-.62.09-1.07.15-.28,1.14-.56,2.27-.86,3.5h-3.89c-.91-1.57-1.17-3.26-.94-5.24,3.66-2.23,7.63-3.37,12-2.55,3.14.59,5.19,2.88,5.65,6.06.16,1.1.21,2.23.22,3.34.02,4.39.02,8.78,0,13.18,0,.79-.07,1.57-.11,2.58-1.9-.16-3.89,1.05-5.44-1.25-.41.19-.97.44-1.53.71-2.16,1.03-4.42,1.35-6.77.91-3.12-.59-5.15-2.45-5.64-5.12-.61-3.29.58-6.24,3.22-7.92,2.16-1.38,4.59-1.79,7.08-1.94,1.1-.07,2.21-.01,3.43-.01Zm.19,4.28c-.77-.08-1.31-.17-1.86-.18-1.2-.02-2.39-.04-3.59,0-2.28.1-2.59.36-2.98,2.54-.11.62-.16,1.27-.1,1.9.12,1.42.67,2.02,2.08,2.18,2.2.24,4.05-.57,5.67-2.03,1.35-1.22.97-2.73.78-4.43Z"/>
  <path class="cls-1" d="m281.37,683.38h-4.59c-.22-.41-.45-.87-.74-1.41-.74.36-1.36.68-2,.97-2.02.91-4.14,1.18-6.32.79-3.25-.58-5.22-2.37-5.8-5.25-.64-3.15.63-6.17,3.32-7.86,2.17-1.36,4.6-1.76,7.09-1.9,1.1-.06,2.2-.01,3.25-.01,1.4-6.73-1.69-6.85-6.38-6.17-.21,1.01-.43,2.09-.7,3.36h-3.94c-1.03-1.97-1.1-2.35-.93-5.19,3.56-2.19,7.47-3.29,11.74-2.57,3.56.6,5.82,3.28,5.93,7.09.13,4.31.05,8.62.07,12.93,0,1.66,0,3.32,0,5.22Zm-5.48-10.49c-1.86-.03-3.67-.12-5.48-.06-2.29.07-2.7.5-3,2.79-.06.47-.07.96-.05,1.43.08,1.57.6,2.23,2.11,2.39,2.2.24,4.05-.58,5.66-2.04,1.35-1.22.91-2.73.76-4.51Z"/>
  <path class="cls-1" d="m33.3,673.11c.23,4.2,2.1,6.01,5.8,6.15,2.7.11,4.97-.96,7.43-2.46.64,1.36,1.23,2.62,1.91,4.07-.65.42-1.21.84-1.81,1.17-3.53,1.91-7.26,2.32-11.14,1.44-3.2-.72-5.49-2.59-6.6-5.68-1.62-4.52-1.66-9.12.15-13.58,2.35-5.81,9.59-8.2,15.1-5.14,3.25,1.81,5.33,6.76,4.37,10.4-.43,1.64-3.13,3.66-4.82,3.63-2.72-.05-5.43-.09-8.15-.12-.71,0-1.41.07-2.24.12Zm9.86-4.55c.39-2.19.31-4.08-1.54-5.3-1.82-1.2-3.84-1.1-5.71-.14-2.19,1.12-2.48,3.25-2.74,5.44h9.99Z"/>
  <path class="cls-1" d="m417.39,673.15c-.19,3.6,1.7,5.78,5,6.09,2.94.27,5.49-.74,8.13-2.44.64,1.4,1.22,2.67,1.86,4.08-3.58,2.73-7.54,3.47-11.79,2.86-4.54-.65-7.33-3.31-8.31-7.78-.85-3.89-.85-7.79.65-11.54,2.34-5.85,9.4-8.35,15.01-5.4,3.36,1.77,5.55,6.85,4.54,10.53-.45,1.63-3.15,3.61-4.85,3.58-2.79-.05-5.59-.09-8.38-.11-.62,0-1.24.1-1.85.15Zm-.1-4.61h9.82c.49-3.95-.88-5.9-4.07-6.08-3.62-.2-5.62,1.88-5.74,6.08Z"/>
  <path class="cls-1" d="m457.59,671.26c-.37,1.76-.76,3.95-1.33,6.09-.24.9-.82,1.72-1.28,2.56-2.63,4.83-14.9,6.19-17.99-.82-2.54-5.73-2.44-11.47.54-17.05.44-.82,1.13-1.56,1.86-2.16,3.29-2.7,9.81-2.98,13.37-.63,2.36,1.55,3.46,3.94,4.08,6.55.38,1.62.47,3.31.75,5.46Zm-17.09-.85c.25,1.87.38,3.54.72,5.16.39,1.85,1.47,3.26,3.45,3.49,1.48.18,3.01.09,4.51-.01,1.03-.07,1.74-.69,2.02-1.75,1.03-3.93,1.13-7.86.01-11.78-.48-1.69-1.72-2.74-3.4-2.99-1.39-.2-2.85-.11-4.27,0-1.13.08-1.9.72-2.09,1.93-.32,2.03-.66,4.07-.96,5.93Z"/>
  <path class="cls-1" d="m301.38,662.88c-2.78-.51-5.15-.22-7.43.98-1.41.74-2.07,1.71-2.03,3.41.12,4.39.04,8.78.04,13.17,0,.87,0,1.74,0,2.81h-5.21v-24.79h4.49c.19.45.42,1.02.67,1.62.29-.08.54-.09.72-.21,2.75-1.79,5.78-2.22,8.96-1.82,3.23.41,5.12,2.3,5.18,5.54.11,6.3.04,12.61.03,18.91,0,.22-.13.44-.24.8h-4.99c-.3-6.71.03-13.46-.19-20.43Z"/>
  <path class="cls-1" d="m129.3,683.39h-4.87c-.3-2.22-.11-4.43-.14-6.62-.04-2.32,0-4.63,0-6.95v-6.86c-3.37-.73-6.32-.26-8.84,1.9-.49.42-.65,1.41-.66,2.15-.06,4.47-.03,8.94-.03,13.42,0,.87,0,1.75,0,2.83h-5c-.46-1.75-.54-22.3-.06-24.86h4.32c.19.52.4,1.09.62,1.69.3-.07.56-.06.74-.17,2.75-1.78,5.77-2.25,8.96-1.85,3.24.41,5.18,2.3,5.24,5.51.11,6.39.02,12.77,0,19.16,0,.14-.11.28-.28.66Z"/>
  <path class="cls-1" d="m215.96,683.39h-4.91c-.59-1.69-.77-21.67-.21-24.97h4.42c.17.6.32,1.12.5,1.75.4-.16.78-.25,1.11-.45,2.71-1.69,5.68-2.05,8.77-1.64,3.1.41,5.06,2.28,5.12,5.38.14,6.53.04,13.07.04,19.81h-5.32v-20.35c-3.25-.61-5.96-.19-8.47,1.52-.93.63-1.06,1.48-1.06,2.49.02,4.55,0,9.1,0,13.65,0,.86,0,1.72,0,2.82Z"/>
  <path class="cls-1" d="m50.81,681.7c.66-1.61,1.16-2.84,1.57-3.82,3.05.54,5.84,1.1,8.66,1.51.82.12,1.7-.21,2.6-.34.13-.7.28-1.24.31-1.78.14-2.51-.26-3.09-2.63-3.8-1.68-.5-3.41-.87-5.04-1.5-3.72-1.42-5.18-3.57-4.95-7,.21-3.24,2.43-5.82,5.93-6.64,3.27-.77,6.5-.48,9.63.8.9.37,1.51.89,1.36,1.96-.2,1.47-.41,2.93-.62,4.47h-4.01c-.24-.97-.47-1.95-.77-3.16-1.32,0-2.66-.1-3.97.03-1.48.15-2.07.8-2.25,2.06-.2,1.48.16,2.41,1.4,3.01.93.45,1.94.73,2.93,1.05,1.14.36,2.32.61,3.45,1,3.53,1.24,5.04,3.36,4.9,6.77-.14,3.53-2.32,6.26-5.69,7.12-2.94.75-5.87.56-8.76-.26-1.29-.37-2.52-.91-4.04-1.47Z"/>
  <path class="cls-1" d="m237.58,651.98h5.32v6.21h7.79c-.2,1.69-.37,3.05-.56,4.61h-6.93c-.11.65-.26,1.1-.26,1.55-.02,4.16-.04,8.31,0,12.47.02,2.1.52,2.57,2.62,2.24,1.41-.22,2.77-.7,4.34-1.11.46,1.26.92,2.51,1.36,3.72-2.5,2.13-7.37,2.78-10,1.32-2.32-1.29-3.72-3.15-3.66-5.98.08-3.83.02-7.67.01-11.51,0-.78-.06-1.57-.11-2.51-1.34-.12-2.57-.22-4.02-.35.22-1.45.41-2.76.62-4.17,1.15-.15,2.16-.28,3.48-.45v-6.03Z"/>
  <path class="cls-1" d="m186.98,683.36h-5.21v-24.79h4.42c.21.56.42,1.14.65,1.77.23-.05.47-.06.67-.16,1.3-.59,2.55-1.3,3.89-1.78,1.49-.54,3.01-.54,4.24.69,1.29,1.29.46,2.67.12,4.17-.71.04-1.42.07-2.12.14-.95.1-1.92.13-2.84.36-2.53.65-3.7,2.2-3.71,4.82-.02,4.07,0,8.14,0,12.21,0,.78-.07,1.56-.11,2.56Z"/>
  <path class="cls-1" d="m491.31,658.59c.17.68.32,1.26.47,1.85,1.56-.71,2.97-1.43,4.44-1.98.72-.27,1.57-.38,2.35-.33,1.95.11,2.95,1.42,2.66,3.35-.08.54-.2,1.08-.33,1.79-.82.05-1.6.06-2.37.14-1.03.12-2.08.17-3.06.47-2.28.7-3.38,2.34-3.39,4.86-.01,3.91,0,7.81,0,11.72,0,.87,0,1.74,0,2.8h-5.19v-24.67h4.44Z"/>
  <path class="cls-1" d="m73.6,658.47c.88-.05,1.66-.12,2.44-.12.78,0,1.57.07,2.51.11v24.83h-4.75c-.5-1.65-.69-20.38-.2-24.82Z"/>
  <path class="cls-1" d="m376.41,658.49h4.95v24.81h-4.76c-.53-1.69-.71-20.96-.19-24.81Z"/>
  <path class="cls-1" d="m204.76,683.37h-4.75c-.51-1.78-.67-21.11-.21-24.71,1.57-.53,3.18-.37,4.96-.07v24.79Z"/>
  <path class="cls-1" d="m135.22,687.31c.61-1.77,1.22-3.54,1.89-5.48-1.01-.24-1.75-.42-2.6-.63v-3.27c.14-.13.23-.29.37-.34,2.02-.78,4.13-1.18,5.87.39,1.78,1.61,1.35,3.77.81,5.83-.14.54-.34,1.07-.57,1.57-1.53,3.26-2.16,3.47-5.76,1.93Z"/>
  <path class="cls-1" d="m381.44,655.82h-5.2v-6.29h5.2v6.29Z"/>
  <path class="cls-1" d="m73.47,655.78v-6.2h5.09c.53,1.97.26,3.99.18,6.2h-5.27Z"/>
  <path class="cls-1" d="m204.91,649.57v6.23h-5.1c-.53-2.03-.31-4.04-.15-6.23h5.25Z"/>
</svg>